Normalized EMG Linear Envelopes
nRows=234
nColumns=4

endheader
time	 med_gas_r	  soleus_r	 tib_ant_r	
2.72782	  0.092153	  0.072998	  0.027466	
2.76109	  0.090020	  0.066580	  0.026068	
2.79435	  0.087892	  0.060789	  0.024546	
2.82762	  0.085898	  0.056059	  0.022878	
2.86089	  0.084062	  0.052484	  0.021153	
2.89415	  0.082323	  0.049964	  0.019532	
2.92742	  0.080634	  0.048414	  0.018167	
2.96069	  0.079092	  0.047845	  0.017154	
2.99395	  0.077975	  0.048257	  0.016539	
3.02722	  0.077665	  0.049468	  0.016344	
3.06048	  0.078441	  0.051064	  0.016583	
3.09375	  0.080267	  0.052520	  0.017230	
3.12702	  0.082702	  0.053445	  0.018183	
3.16028	  0.085026	  0.053782	  0.019272	
3.19355	  0.086547	  0.053807	  0.020297	
3.22681	  0.086900	  0.053939	  0.021079	
3.26008	  0.086156	  0.054468	  0.021489	
3.29335	  0.084709	  0.055369	  0.021469	
3.32661	  0.083076	  0.056317	  0.021055	
3.35988	  0.081735	  0.056881	  0.020384	
3.39315	  0.081034	  0.056750	  0.019652	
3.42641	  0.081092	  0.055850	  0.019038	
3.45968	  0.081737	  0.054324	  0.018638	
3.49294	  0.082580	  0.052442	  0.018449	
3.52621	  0.083275	  0.050523	  0.018418	
3.55948	  0.083785	  0.048894	  0.018503	
3.59274	  0.084410	  0.047839	  0.018709	
3.62601	  0.085454	  0.047514	  0.019067	
3.65927	  0.086823	  0.047883	  0.019579	
3.69254	  0.087925	  0.048726	  0.020168	
3.72581	  0.088024	  0.049736	  0.020678	
3.75907	  0.086749	  0.050638	  0.020940	
3.79234	  0.084326	  0.051293	  0.020862	
3.8256	  0.081402	  0.051757	  0.020475	
3.85887	  0.078671	  0.052246	  0.019902	
3.89214	  0.076623	  0.053002	  0.019278	
3.9254	  0.075481	  0.054130	  0.018696	
3.95867	  0.075208	  0.055531	  0.018215	
3.99194	  0.075524	  0.056989	  0.017902	
4.0252	  0.076007	  0.058338	  0.017839	
4.05847	  0.076316	  0.059559	  0.018069	
4.09173	  0.076443	  0.060733	  0.018539	
4.125	  0.076777	  0.061912	  0.019115	
4.15827	  0.077859	  0.063030	  0.019671	
4.19153	  0.079966	  0.063895	  0.020167	
4.2248	  0.082831	  0.064257	  0.020632	
4.25806	  0.085701	  0.063886	  0.021072	
4.29133	  0.087768	  0.062624	  0.021379	
4.3246	  0.088652	  0.060457	  0.021334	
4.35786	  0.088589	  0.057579	  0.020656	
4.39113	  0.088151	  0.054415	  0.019082	
4.4244	  0.087719	  0.051530	  0.016444	
4.45766	  0.087180	  0.049434	  0.012794	
4.49093	  0.086091	  0.048406	  0.008556	
4.52419	  0.084174	  0.048460	  0.004674	
4.55746	  0.081729	  0.049482	  0.002652	
4.59073	  0.079722	  0.051492	  0.004482	
4.62399	  0.079599	  0.054883	  0.012510	
4.65726	  0.083050	  0.060521	  0.029326	
4.69052	  0.091816	  0.069582	  0.057604	
4.72379	  0.107409	  0.083118	  0.099611	
4.75706	  0.130621	  0.101476	  0.156164	
4.79032	  0.160955	  0.123878	  0.225285	
4.82359	  0.196437	  0.148463	  0.301456	
4.85685	  0.234078	  0.172844	  0.376414	
4.89012	  0.270787	  0.194901	  0.441511	
4.92339	  0.304097	  0.213387	  0.490462	
4.95665	  0.332350	  0.228144	  0.520946	
4.98992	  0.354592	  0.239992	  0.534331	
5.02319	  0.370630	  0.250406	  0.534098	
5.05645	  0.381249	  0.261014	  0.524208	
5.08972	  0.388215	  0.273004	  0.508308	
5.12298	  0.393754	  0.286678	  0.489795	
5.15625	  0.399723	  0.301372	  0.472023	
5.18952	  0.407003	  0.315743	  0.458010	
5.22278	  0.415424	  0.328252	  0.449725	
5.25605	  0.424243	  0.337724	  0.447621	
5.28931	  0.432797	  0.343871	  0.450885	
5.32258	  0.440893	  0.347526	  0.458214	
5.35585	  0.448757	  0.350365	  0.468563	
5.38911	  0.456886	  0.354316	  0.481604	
5.42238	  0.466202	  0.361114	  0.497822	
5.45565	  0.478335	  0.372149	  0.518034	
5.48891	  0.495285	  0.388218	  0.542333	
5.52218	  0.518225	  0.408947	  0.569223	
5.55544	  0.546405	  0.432373	  0.596080	
5.58871	  0.577351	  0.455407	  0.620897	
5.62198	  0.608201	  0.475063	  0.643704	
5.65524	  0.636748	  0.489482	  0.665971	
5.68851	  0.661236	  0.498113	  0.688409	
5.72177	  0.679661	  0.501383	  0.709411	
5.75504	  0.689966	  0.500491	  0.725765	
5.78831	  0.691289	  0.497302	  0.734920	
5.82157	  0.684997	  0.493906	  0.736623	
5.85484	  0.674426	  0.491857	  0.732749	
5.8881	  0.663622	  0.491786	  0.725905	
5.92137	  0.656040	  0.493670	  0.718117	
5.95464	  0.653632	  0.497229	  0.710252	
5.9879	  0.656248	  0.501770	  0.702098	
6.02117	  0.661615	  0.505772	  0.692787	
6.05444	  0.666371	  0.507071	  0.681370	
6.0877	  0.667978	  0.503958	  0.667452	
6.12097	  0.666237	  0.496440	  0.651754	
6.15423	  0.663179	  0.486638	  0.636162	
6.1875	  0.661368	  0.477968	  0.622913	
6.22077	  0.662035	  0.473642	  0.613280	
6.25403	  0.664539	  0.475428	  0.606875	
6.2873	  0.667399	  0.483221	  0.602263	
6.32056	  0.669812	  0.495486	  0.598327	
6.35383	  0.672409	  0.510174	  0.595143	
6.3871	  0.676818	  0.525643	  0.593705	
6.42036	  0.684441	  0.540946	  0.594897	
6.45363	  0.695203	  0.555203	  0.598638	
6.4869	  0.707161	  0.566607	  0.603900	
6.52016	  0.717447	  0.572275	  0.609523	
6.55343	  0.724049	  0.569488	  0.615070	
6.58669	  0.726965	  0.557442	  0.620843	
6.61996	  0.727640	  0.538106	  0.627007	
6.65323	  0.727101	  0.515509	  0.632713	
6.68649	  0.724428	  0.493959	  0.636311	
6.71976	  0.716885	  0.476251	  0.636651	
6.75302	  0.701657	  0.462894	  0.634357	
6.78629	  0.678018	  0.452768	  0.631789	
6.81956	  0.648586	  0.444726	  0.631614	
6.85282	  0.618907	  0.438909	  0.635135	
6.88609	  0.595486	  0.436753	  0.641698	
6.91935	  0.583251	  0.439830	  0.649527	
6.95262	  0.583764	  0.448692	  0.657243	
6.98589	  0.595109	  0.462706	  0.664896	
7.01915	  0.613363	  0.480825	  0.673763	
7.05242	  0.634580	  0.502359	  0.685065	
7.08569	  0.656027	  0.526978	  0.698536	
7.11895	  0.676151	  0.553973	  0.712006	
7.15222	  0.693891	  0.581524	  0.722400	
7.18548	  0.708347	  0.606701	  0.727375	
7.21875	  0.719176	  0.626417	  0.726307	
7.25202	  0.727008	  0.638719	  0.720064	
7.28528	  0.733080	  0.643389	  0.710202	
7.31855	  0.738147	  0.641320	  0.698525	
7.35181	  0.741687	  0.633286	  0.687119	
7.38508	  0.742244	  0.619423	  0.678150	
7.41835	  0.738708	  0.600042	  0.672961	
7.45161	  0.731469	  0.576948	  0.671085	
7.48488	  0.722600	  0.553767	  0.670338	
7.51815	  0.715063	  0.534752	  0.668296	
7.55141	  0.711533	  0.522963	  0.663989	
7.58468	  0.713384	  0.519280	  0.658327	
7.61794	  0.720270	  0.522926	  0.653126	
7.65121	  0.730525	  0.532847	  0.649926	
7.68448	  0.742124	  0.548560	  0.649540	
7.71774	  0.753354	  0.569506	  0.652120	
7.75101	  0.762499	  0.593371	  0.657030	
7.78427	  0.767138	  0.615156	  0.662667	
7.81754	  0.764496	  0.628536	  0.666904	
7.85081	  0.753270	  0.629084	  0.668264	
7.88407	  0.735302	  0.616875	  0.666880	
7.91734	  0.715207	  0.596287	  0.664312	
7.9506	  0.698121	  0.573320	  0.662374	
7.98387	  0.687770	  0.552955	  0.662139	
8.01714	  0.686306	  0.538509	  0.663936	
8.0504	  0.695072	  0.532491	  0.668012	
8.08367	  0.714545	  0.537019	  0.674850	
8.11694	  0.743198	  0.552861	  0.684695	
8.1502	  0.776714	  0.578023	  0.696864	
8.18347	  0.808845	  0.607535	  0.709633	
8.21673	  0.833614	  0.635109	  0.720871	
8.25	  0.847394	  0.655809	  0.728889	
8.28327	  0.849557	  0.667921	  0.732927	
8.31653	  0.841548	  0.672746	  0.733108	
8.3498	  0.825310	  0.672580	  0.730133	
8.38306	  0.802427	  0.668673	  0.724928	
8.41633	  0.774551	  0.660826	  0.718323	
8.4496	  0.744385	  0.648677	  0.710983	
8.48286	  0.715944	  0.633257	  0.703863	
8.51613	  0.693547	  0.617314	  0.698966	
8.5494	  0.680276	  0.604200	  0.699345	
8.58266	  0.676980	  0.596305	  0.707674	
8.61593	  0.682388	  0.594237	  0.724110	
8.64919	  0.693995	  0.597043	  0.745280	
8.68246	  0.708967	  0.602875	  0.765482	
8.71573	  0.724575	  0.609450	  0.779264	
8.74899	  0.738342	  0.614434	  0.783508	
8.78226	  0.748283	  0.616183	  0.777805	
8.81552	  0.753182	  0.614556	  0.763484	
8.84879	  0.752426	  0.610762	  0.742557	
8.88206	  0.745396	  0.605897	  0.717416	
8.91532	  0.731166	  0.599335	  0.691136	
8.94859	  0.709251	  0.588712	  0.667473	
8.98185	  0.681067	  0.571898	  0.649973	
9.01512	  0.650785	  0.549400	  0.640589	
9.04839	  0.624468	  0.524987	  0.638920	
9.08165	  0.607694	  0.503758	  0.642723	
9.11492	  0.603109	  0.489263	  0.649202	
9.14819	  0.609527	  0.482140	  0.655958	
9.18145	  0.623041	  0.481196	  0.661199	
9.21472	  0.639199	  0.485369	  0.663681	
9.24798	  0.654772	  0.494368	  0.662935	
9.28125	  0.668244	  0.507579	  0.659580	
9.31452	  0.679229	  0.522869	  0.655078	
9.34778	  0.687547	  0.536935	  0.650748	
9.38105	  0.692545	  0.546906	  0.646699	
9.41431	  0.692890	  0.551519	  0.641607	
9.44758	  0.686886	  0.550737	  0.633518	
9.48085	  0.673097	  0.544435	  0.620986	
9.51411	  0.650856	  0.531679	  0.603644	
9.54738	  0.620264	  0.511277	  0.581862	
9.58065	  0.581766	  0.482906	  0.555817	
9.61391	  0.535808	  0.447542	  0.524674	
9.64718	  0.482976	  0.406780	  0.486519	
9.68044	  0.424490	  0.361829	  0.439313	
9.71371	  0.362628	  0.313348	  0.382485	
9.74698	  0.300689	  0.262359	  0.318134	
9.78024	  0.242442	  0.211243	  0.250904	
9.81351	  0.191301	  0.163649	  0.186550	
9.84677	  0.149595	  0.123174	  0.130084	
9.88004	  0.118193	  0.091893	  0.084549	
9.91331	  0.096569	  0.069814	  0.050822	
9.94657	  0.083198	  0.055455	  0.028112	
9.97984	  0.076090	  0.046831	  0.014651	
10.0131	  0.073255	  0.042139	  0.008249	
10.0464	  0.073037	  0.039963	  0.006684	
10.0796	  0.074273	  0.039246	  0.007977	
10.1129	  0.076304	  0.039262	  0.010556	
10.1462	  0.078837	  0.039608	  0.013334	
10.1794	  0.081718	  0.040134	  0.015696	
10.2127	  0.084697	  0.040801	  0.017426	
10.246	  0.087329	  0.041555	  0.018594	
10.2792	  0.089088	  0.042293	  0.019391	
10.3125	  0.089639	  0.042941	  0.019982	
10.3458	  0.089065	  0.043546	  0.020433	
10.379	  0.087862	  0.044286	  0.020738	
10.4123	  0.086659	  0.045360	  0.020887	
10.4456	  0.085872	  0.046835	  0.020905	
10.4788	  0.085522	  0.048566	  0.020844	
